<svg width="132" height="39" viewBox="0 0 132 39" fill="none" xmlns="http://www.w3.org/2000/svg">
<g clip-path="url(#clip0_2745_1706)">
<path d="M66.5656 13.4713H71.2378L69.285 29.1713C69.0515 31.1025 68.7442 34.2563 66.7561 36.2668C65.527 37.5212 63.2716 38.6614 59.6335 38.6614C57.6362 38.6614 55.1902 38.32 53.428 36.4573C52.3525 35.3553 51.5843 33.645 51.3984 31.8601H56.2995C56.3763 32.543 56.7205 33.3844 57.2567 33.8737C57.6776 34.2913 58.4858 34.709 59.784 34.709C61.2405 34.709 62.3129 34.2517 63.0012 33.6069C64.0367 32.6192 64.3425 31.1376 64.4961 30.0355L64.8034 27.7187C64.2496 28.4934 63.5468 29.1518 62.7354 29.656C61.796 30.2022 60.722 30.4782 59.6335 30.4532C57.6039 30.4532 55.7264 29.9593 54.1947 28.4396C52.9655 27.2202 52.0115 25.2859 52.0115 22.5499C52.0115 19.4342 53.2406 16.8506 54.9982 15.2166C56.1474 14.1145 58.071 12.9302 60.8964 12.9302C62.3913 12.9302 63.5389 13.235 64.3824 13.7289C65.1661 14.1823 65.8239 14.8219 66.2968 15.59L66.5656 13.4713ZM58.4504 18.2209C57.3396 19.2102 56.8418 20.768 56.8418 22.1734C56.8315 22.7358 56.935 23.2945 57.1461 23.8166C57.3572 24.3386 57.6717 24.8134 58.071 25.2128C58.4523 25.5874 58.9058 25.8821 59.4045 26.079C59.9031 26.2759 60.4366 26.3712 60.9732 26.359C62.8506 26.359 63.9614 25.6746 64.5361 25.1396C65.5316 24.19 66.1447 22.6322 66.1447 21.1506C66.1589 20.5845 66.0537 20.0218 65.836 19.4984C65.6182 18.975 65.2927 18.5025 64.8802 18.1112C64.1904 17.5015 63.118 17.0442 61.7782 17.0442C60.1312 17.0442 59.065 17.6524 58.4504 18.2209Z" fill="white"/>
<path d="M76.8038 13.4716L75.8113 21.6798C75.6576 23.009 75.6192 23.4281 75.6192 23.6614C75.6192 24.7283 75.9634 25.3381 76.3091 25.6749C76.8068 26.2069 77.6918 26.5117 78.6444 26.5117C79.832 26.5117 80.6755 26.0941 81.2117 25.5972C82.092 24.7604 82.2871 23.6156 82.4746 22.1386L83.55 13.4747H88.2237L87.1068 22.5486C86.7227 25.5972 85.996 27.9446 83.5055 29.3515C82.0121 30.1868 80.1362 30.452 78.566 30.452C76.4965 30.452 74.4285 29.9947 73.0888 29.0466C72.2069 28.4003 70.8672 27.033 70.8672 24.5256C70.8897 23.658 70.9666 22.7925 71.0976 21.9344L72.1316 13.4609L76.8038 13.4716Z" fill="white"/>
<path d="M1.98347 13.9592H3.57056L3.33242 15.9666C3.71216 15.2929 4.25762 14.7255 4.91797 14.3174C5.71929 13.8383 6.64052 13.5932 7.57591 13.6101C8.65138 13.6101 9.75758 13.8448 10.5519 14.4363C11.2498 14.9529 11.7525 15.6873 11.9792 16.5215C12.3318 15.6855 12.9256 14.9717 13.6861 14.4698C14.5972 13.8387 15.5497 13.604 16.7804 13.604C18.9221 13.604 19.993 14.5079 20.3894 14.9027C21.262 15.8066 21.5002 16.9086 21.5002 17.8933C21.4903 18.7877 21.4241 19.6807 21.302 20.5669L20.1512 30.0174H18.5657L19.7149 20.6888C19.7548 20.3748 19.9131 18.9969 19.9131 18.4451C19.9131 17.343 19.5566 16.5565 19.0404 16.0063C18.2876 15.2182 17.2951 15.1008 16.5423 15.1008C15.5897 15.1008 14.5972 15.2975 13.7245 16.1236C12.6153 17.1906 12.2573 18.878 12.0191 20.7284L10.8684 30.0174H9.28591L10.4351 20.7681C10.515 20.1386 10.6349 19.0761 10.6349 18.4817C10.6349 17.6951 10.555 16.7501 9.8006 16.0032C9.32432 15.5307 8.53154 15.0978 7.30243 15.0978C6.03184 15.0978 5.08082 15.5703 4.4463 16.2395C3.45379 17.2623 2.93757 18.9146 2.69943 21.0013L1.58709 30.0174H0L1.98347 13.9592Z" fill="#00DBAF"/>
<path d="M23.9158 22.1844C23.7669 23.1162 23.8361 24.0695 24.1179 24.9706C24.3998 25.8716 24.8868 26.6962 25.5413 27.3807C26.1758 28.0102 27.4464 28.9537 29.6281 28.9537C30.8971 28.9537 32.3644 28.6001 33.4691 27.8136C34.3604 27.1476 35.0828 26.2843 35.5785 25.2924L36.8076 26.0805C36.1332 27.2602 35.0623 28.5193 33.9115 29.2677C33.0788 29.818 31.6899 30.449 29.5882 30.449C27.4864 30.449 25.6611 29.8972 24.1924 28.315C22.7651 26.8197 22.1689 24.9312 22.1689 22.8444C22.1689 19.8538 23.2798 17.4927 24.8668 15.9181C26.1374 14.6591 28.0011 13.5967 30.659 13.5967C32.8007 13.5967 34.586 14.3436 35.7368 15.4456C37.562 17.1772 37.9184 19.6968 37.7202 22.1753L23.9158 22.1844ZM36.1331 20.6891C36.0932 18.9972 35.3803 17.5019 34.5077 16.5964C33.7533 15.8084 32.5242 15.1011 30.659 15.1011C29.7932 15.0878 28.9339 15.2522 28.1352 15.5841C27.3365 15.9159 26.6155 16.4079 26.0176 17.0293C25.0573 18.0474 24.4107 19.3167 24.154 20.6876L36.1331 20.6891Z" fill="#00DBAF"/>
<path d="M41.1383 13.9591L39.9476 23.6413C39.711 25.4902 39.9092 27.0648 40.9401 28.0098C41.6545 28.6454 42.7254 28.9503 43.7164 28.9503C45.1452 28.9503 46.2959 28.4397 47.0088 27.6913C47.525 27.141 48.1596 26.0389 48.4377 23.6382L49.6284 13.9561H51.2139L49.865 24.0726C49.6284 25.7646 49.3902 27.4565 48.2395 28.7552C46.8567 30.2901 44.9071 30.4487 43.6303 30.4487C42.3213 30.4487 40.7742 30.2124 39.5835 28.9915C37.9564 27.2995 38.2007 25.0162 38.3544 23.7175L39.5435 13.9622L41.1383 13.9591Z" fill="#00DBAF"/>
<path d="M116.074 31.0509C115.9 30.9839 115.814 31.0601 115.201 31.8131C114.977 32.089 114.705 32.406 114.599 32.5157C114.493 32.6255 114.336 32.7993 114.255 32.8999C114.173 33.0005 113.966 33.2139 113.794 33.3739C113.507 33.6429 113.206 33.8973 112.893 34.136C112.789 34.2199 112.635 34.3449 112.552 34.4165C112.459 34.4962 112.361 34.5705 112.259 34.6391C112.181 34.6894 112.048 34.7839 111.965 34.8479C111.505 35.2122 110.405 35.8173 109.47 36.2197C106.599 37.4788 103.21 38.0123 99.8219 37.744C98.2149 37.6128 96.6319 37.2747 95.1129 36.738C93.1156 36.014 92.1046 35.4683 91.1398 34.604C90.9107 34.3951 90.6962 34.171 90.4976 33.9333C90.3439 33.7352 90.178 33.4425 90.1903 33.3968C90.265 33.2981 90.375 33.2316 90.4976 33.2108C90.6205 33.2001 90.6512 33.1666 90.6389 33.0584C90.6241 32.9621 90.5723 32.8752 90.4944 32.8159C90.4166 32.7565 90.3186 32.7293 90.221 32.7398C90.046 32.763 89.8775 32.8207 89.7252 32.9095C89.573 32.9982 89.4402 33.1162 89.3345 33.2565C89.1125 33.5805 88.9918 33.9623 88.9873 34.354C89.0134 34.6147 89.207 34.7701 89.3422 34.6375C89.4252 34.527 89.5011 34.4114 89.5696 34.2915L89.7755 33.9516C89.797 33.9196 89.8139 33.9409 89.863 34.0553C90.2441 34.9531 91.2673 35.9819 92.5056 36.7136C93.5411 37.3233 95.2527 38.0016 96.7169 38.3811C98.5404 38.8432 100.42 39.0485 102.302 38.9908C105.574 38.9253 108.88 38.0473 111.399 36.5764C111.578 36.4712 111.926 36.2715 112.167 36.1389C112.537 35.9402 112.893 35.7156 113.231 35.4667C113.345 35.3814 113.506 35.2686 113.588 35.2168C113.893 35.0106 114.185 34.7862 114.462 34.5446C114.561 34.4535 114.667 34.3709 114.78 34.2976C115.067 34.0849 115.333 33.846 115.574 33.5843C115.91 33.2452 116.172 32.8409 116.343 32.3969C116.431 32.172 116.458 31.9282 116.423 31.6896C116.39 31.371 116.249 31.118 116.074 31.0509Z" fill="#00DBAF"/>
<path d="M98.2966 13.272C98.3202 13.2787 98.3444 13.2833 98.3688 13.2857C98.5501 13.2857 98.7314 13.2964 98.9111 13.3086C99.1247 13.3223 99.3367 13.3375 99.5487 13.3634C99.8176 13.3939 100.086 13.4274 100.354 13.4717C101.221 13.6031 102.064 13.8647 102.852 14.2475C103.529 14.5746 104.126 15.0429 104.604 15.6204C105.081 16.1978 105.427 16.8708 105.617 17.5933C105.701 17.8964 105.758 18.2059 105.79 18.5185C105.814 18.7891 105.823 19.0609 105.816 19.3325C105.816 19.5215 105.808 19.712 105.8 19.901C105.8 19.991 105.785 20.0794 105.777 20.1693C105.774 20.1868 105.769 20.2041 105.763 20.2211C105.694 20.2211 105.628 20.2364 105.561 20.2409L105.034 20.2745L104.479 20.3141L103.967 20.3476L103.388 20.3888L103.125 20.4071L102.276 20.465L101.758 20.4985L101.194 20.5382C101.159 20.5382 101.124 20.5382 101.081 20.5382C101.078 20.5042 101.078 20.4701 101.081 20.436C101.107 20.1756 101.107 19.913 101.081 19.6526C101.059 19.4118 101.01 19.1741 100.936 18.9438C100.837 18.6293 100.671 18.3401 100.447 18.0963C100.224 17.8525 99.95 17.66 99.644 17.5323C99.3358 17.3973 99.0099 17.3059 98.6761 17.261C98.4171 17.2245 98.1554 17.2107 97.8941 17.2198C97.2638 17.2339 96.6463 17.398 96.0934 17.6985C95.507 18.0247 95.0453 18.5337 94.7798 19.1465C94.6225 19.5083 94.5056 19.886 94.431 20.273C94.3527 20.654 94.2958 21.0351 94.2482 21.4238C94.2052 21.7652 94.1606 22.1051 94.1176 22.4466C94.0792 22.7514 94.0439 23.0563 94.007 23.3611C93.9747 23.6233 93.9394 23.8839 93.9056 24.1461C93.8687 24.451 93.8334 24.7558 93.795 25.0607C93.7627 25.3229 93.7274 25.5835 93.6951 25.8457C93.6567 26.1505 93.6229 26.4554 93.5845 26.7603C93.5522 27.0224 93.5169 27.2831 93.4846 27.5453C93.4524 27.8074 93.4216 28.0757 93.3878 28.3394C93.354 28.6031 93.3202 28.8683 93.288 29.1335C93.2557 29.3988 93.2234 29.6625 93.1927 29.9262C93.1789 30.0329 93.1666 30.1396 93.1528 30.2463H88.4775C88.4883 30.1777 88.5021 30.1091 88.5113 30.0405C88.5344 29.8545 88.5559 29.6686 88.5774 29.4841C88.5989 29.2997 88.625 29.1031 88.6481 28.9125C88.6711 28.722 88.6926 28.5513 88.7141 28.3714L88.7833 27.8074L88.8524 27.2511C88.8755 27.0666 88.897 26.8807 88.92 26.6947L88.9845 26.1536C89.0091 25.9631 89.0322 25.7725 89.0552 25.5835C89.0783 25.3945 89.0998 25.2223 89.1213 25.0409C89.1489 24.8168 89.1781 24.5836 89.2058 24.3671C89.2273 24.1812 89.2488 23.9952 89.2718 23.8108C89.2995 23.5821 89.3287 23.3535 89.3563 23.1279C89.384 22.9023 89.4086 22.6828 89.4362 22.4603C89.4639 22.2377 89.4931 22.003 89.5223 21.7789C89.5545 21.5168 89.5807 21.2531 89.6175 20.9924C89.6616 20.6743 89.7102 20.3568 89.7635 20.0397C89.8412 19.5673 89.9438 19.0992 90.0708 18.6374C90.2461 17.9639 90.5041 17.3142 90.839 16.7031C91.3145 15.8619 91.9888 15.1479 92.804 14.6225C93.3609 14.2634 93.9654 13.9828 94.6 13.7887C95.1263 13.6222 95.666 13.5008 96.2132 13.4259C96.5067 13.3878 96.8002 13.3512 97.0951 13.3268C97.3579 13.3055 97.6221 13.3009 97.8848 13.2872C97.9118 13.285 97.9386 13.2804 97.9647 13.2735L98.2966 13.272Z" fill="#00DBAF"/>
<path d="M115.1 14.9395C114.561 14.3457 113.984 13.7886 113.37 13.272H113.354L112.279 21.939C112.088 23.4206 111.896 24.5607 111.014 25.3975C110.478 25.8914 109.632 26.3121 108.447 26.3121C107.49 26.3121 106.603 26.0073 106.11 25.4753C105.766 25.1323 105.42 24.5241 105.42 23.4602C105.42 23.2331 105.459 22.8139 105.612 21.4786L105.694 20.808L100.976 21.1296L100.9 21.7393C100.769 22.5975 100.692 23.4629 100.67 24.3306C100.67 26.8395 102.011 28.2068 102.893 28.8531C104.233 29.8042 106.302 30.26 108.372 30.26C109.942 30.26 111.819 29.9932 113.313 29.1579C115.803 27.751 116.532 25.3945 116.916 22.3536L117.896 14.3344C116.95 14.4687 116.016 14.671 115.1 14.9395V14.9395Z" fill="white"/>
<path d="M132 9.3514L119.476 0L103.62 1.32154L116.604 9.9733L132 9.3514Z" fill="#00DBAF"/>
<path d="M124.489 13.9913L125.627 10.0359L116.345 10.4413L108.764 5.25879L107.635 9.18379C112.07 10.5404 115.297 14.2611 115.297 14.2611C120.752 12.6789 124.49 13.9913 124.49 13.9913H124.489Z" fill="#00DBAF"/>
<path d="M124.31 17.5795L122.671 23.2589L124.307 23.7162L125.94 18.0368C125.975 17.9143 125.978 17.7849 125.947 17.6612C125.917 17.5376 125.855 17.4238 125.767 17.331C125.907 17.2832 126.031 17.1997 126.129 17.089C126.226 16.9783 126.292 16.8443 126.321 16.7002C126.35 16.5562 126.34 16.4071 126.293 16.268C126.245 16.1289 126.162 16.0045 126.051 15.9074V15.8982L127.775 9.90479L126.996 9.92765L125.356 15.6742L125.369 15.7077C125.219 15.7284 125.078 15.7884 124.959 15.8816C124.841 15.9748 124.749 16.0977 124.695 16.2376C124.64 16.3775 124.624 16.5294 124.649 16.6774C124.673 16.8254 124.737 16.9643 124.834 17.0795C124.71 17.1122 124.597 17.1761 124.505 17.2651C124.413 17.354 124.346 17.4649 124.31 17.5871V17.5795Z" fill="#00DBAF"/>
</g>
<defs>
<clipPath id="clip0_2745_1706">
<rect width="132" height="39" fill="white"/>
</clipPath>
</defs>
</svg>
